<svg width="22" height="21" viewBox="0 0 22 21" fill="none" xmlns="http://www.w3.org/2000/svg">
<path fill-rule="evenodd" clip-rule="evenodd" d="M11 19.6875C13.0886 19.6875 15.0916 18.8578 16.5685 17.381C18.0453 15.9041 18.875 13.9011 18.875 11.8125C18.875 9.72392 18.0453 7.72088 16.5685 6.24403C15.0916 4.76719 13.0886 3.9375 11 3.9375C8.91142 3.9375 6.90838 4.76719 5.43153 6.24403C3.95468 7.72088 3.125 9.72392 3.125 11.8125C3.125 13.9011 3.95468 15.9041 5.43153 17.381C6.90838 18.8578 8.91142 19.6875 11 19.6875ZM11 21C13.4367 21 15.7736 20.032 17.4965 18.309C19.2195 16.5861 20.1875 14.2492 20.1875 11.8125C20.1875 9.37582 19.2195 7.03895 17.4965 5.31596C15.7736 3.59297 13.4367 2.625 11 2.625C8.56332 2.625 6.22645 3.59297 4.50346 5.31596C2.78047 7.03895 1.8125 9.37582 1.8125 11.8125C1.8125 14.2492 2.78047 16.5861 4.50346 18.309C6.22645 20.032 8.56332 21 11 21Z" fill="#6E6F77"/>
<path fill-rule="evenodd" clip-rule="evenodd" d="M11 5.90625C11.174 5.90625 11.341 5.97539 11.464 6.09846C11.5871 6.22153 11.6562 6.38845 11.6562 6.5625V11.8125C11.6562 11.9865 11.5871 12.1535 11.464 12.2765C11.341 12.3996 11.174 12.4688 11 12.4688H6.40625C6.2322 12.4688 6.06528 12.3996 5.94221 12.2765C5.81914 12.1535 5.75 11.9865 5.75 11.8125C5.75 11.6385 5.81914 11.4715 5.94221 11.3485C6.06528 11.2254 6.2322 11.1562 6.40625 11.1562H10.3438V6.5625C10.3438 6.38845 10.4129 6.22153 10.536 6.09846C10.659 5.97539 10.826 5.90625 11 5.90625ZM7.71875 0.65625C7.71875 0.482202 7.78789 0.315282 7.91096 0.192211C8.03403 0.0691404 8.20095 0 8.375 0L13.625 0C13.799 0 13.966 0.0691404 14.089 0.192211C14.2121 0.315282 14.2812 0.482202 14.2812 0.65625C14.2812 0.830298 14.2121 0.997218 14.089 1.12029C13.966 1.24336 13.799 1.3125 13.625 1.3125H8.375C8.20095 1.3125 8.03403 1.24336 7.91096 1.12029C7.78789 0.997218 7.71875 0.830298 7.71875 0.65625Z" fill="#6E6F77"/>
<path d="M9.6875 1.3125H12.3125V3.9375H9.6875V1.3125Z" fill="#6E6F77"/>
</svg>
