<svg width="24" height="24" viewBox="0 0 24 24" fill="none" xmlns="http://www.w3.org/2000/svg">
<g clip-path="url(#clip0_25_1490)">
<path fill-rule="evenodd" clip-rule="evenodd" d="M4.755 10.059C5.04415 8.97924 5.57101 7.97776 6.29703 7.12782C7.02305 6.27788 7.92988 5.60098 8.95118 5.14662C9.97249 4.69226 11.0824 4.47193 12.1999 4.50176C13.3173 4.53159 14.4139 4.81081 15.4095 5.31901C15.4974 5.36372 15.5932 5.3907 15.6914 5.39839C15.7897 5.40608 15.8885 5.39434 15.9823 5.36383C16.076 5.33333 16.1628 5.28466 16.2378 5.22061C16.3127 5.15655 16.3743 5.07836 16.419 4.99051C16.4637 4.90265 16.4907 4.80685 16.4984 4.70858C16.5061 4.6103 16.4943 4.51147 16.4638 4.41772C16.4333 4.32398 16.3846 4.23717 16.3206 4.16224C16.2565 4.08731 16.1784 4.02572 16.0905 3.98101C14.1959 3.01426 12.0201 2.74977 9.94907 3.23445C7.87802 3.71913 6.04557 4.92165 4.7767 6.62874C3.50784 8.33582 2.88459 10.4371 3.01748 12.56C3.15037 14.6828 4.03082 16.69 5.50267 18.2255C6.97452 19.761 8.94264 20.7256 11.058 20.9482C13.1733 21.1709 15.2991 20.6371 17.0583 19.4416C18.8176 18.2461 20.0966 16.4662 20.6685 14.4175C21.2404 12.3689 21.0682 10.1838 20.1825 8.25001C20.0996 8.069 19.9481 7.92835 19.7614 7.85901C19.5748 7.78967 19.3683 7.79731 19.1872 7.88026C19.0062 7.96321 18.8656 8.11466 18.7962 8.30131C18.7269 8.48795 18.7346 8.6945 18.8175 8.87551C19.319 9.96969 19.5497 11.1685 19.4903 12.3706C19.4308 13.5728 19.0829 14.743 18.476 15.7823C17.869 16.8217 17.0208 17.6997 16.003 18.3422C14.9852 18.9847 13.8278 19.3729 12.6284 19.4738C11.429 19.5747 10.223 19.3855 9.11212 18.9222C8.00126 18.4588 7.01825 17.7349 6.24611 16.8116C5.47397 15.8883 4.93538 14.7927 4.67585 13.6174C4.41632 12.4421 4.44347 11.2216 4.755 10.059Z" fill="#6E6F77"/>
<path fill-rule="evenodd" clip-rule="evenodd" d="M12.2205 0.218995C12.3611 0.0783914 12.5519 -0.000595093 12.7508 -0.000595093C12.9496 -0.000595093 13.1404 0.0783914 13.281 0.218995L17.031 3.96899C17.1008 4.03866 17.1563 4.12143 17.1941 4.21254C17.2319 4.30366 17.2513 4.40134 17.2513 4.49999C17.2513 4.59865 17.2319 4.69633 17.1941 4.78745C17.1563 4.87856 17.1008 4.96133 17.031 5.03099L13.281 8.781C13.2113 8.85063 13.1285 8.90584 13.0374 8.94349C12.9464 8.98114 12.8488 9.00048 12.7502 9.00041C12.6517 9.00034 12.5541 8.98086 12.4631 8.94309C12.3721 8.90531 12.2894 8.84998 12.2198 8.78024C12.0791 8.63941 12.0002 8.44849 12.0003 8.24946C12.0004 8.15092 12.0199 8.05335 12.0577 7.96233C12.0954 7.87131 12.1508 7.78863 12.2205 7.719L15.4395 4.49999L12.2205 1.28099C12.1507 1.21133 12.0952 1.12856 12.0574 1.03745C12.0196 0.946328 12.0002 0.848646 12.0002 0.749995C12.0002 0.651344 12.0196 0.553662 12.0574 0.462544C12.0952 0.371427 12.1507 0.288663 12.2205 0.218995Z" fill="#6E6F77"/>
</g>
<defs>
<clipPath id="clip0_25_1490">
<path d="M0 4C0 1.79086 1.79086 0 4 0H20C22.2091 0 24 1.79086 24 4V20C24 22.2091 22.2091 24 20 24H4C1.79086 24 0 22.2091 0 20V4Z" fill="white"/>
</clipPath>
</defs>
</svg>
