<svg width="24" height="24" viewBox="0 0 24 24" fill="none" xmlns="http://www.w3.org/2000/svg">
<g clip-path="url(#clip0_5_26)">
<path d="M12 23C12.7956 23 13.5587 22.6839 14.1213 22.1213C14.6839 21.5587 15 20.7956 15 20H9C9 20.7956 9.31607 21.5587 9.87868 22.1213C10.4413 22.6839 11.2044 23 12 23Z" fill="#6E6F77"/>
<path fill-rule="evenodd" clip-rule="evenodd" d="M12 2.80299L10.8045 3.03829C9.44844 3.30748 8.22949 4.02491 7.35397 5.06914C6.47846 6.11336 6.00014 7.42025 6 8.76859C6 9.68638 5.799 11.9794 5.3115 14.2373C5.0715 15.3582 4.7475 16.5259 4.317 17.5372H19.683C19.2525 16.5259 18.93 15.3597 18.6885 14.2373C18.201 11.9794 18 9.68638 18 8.76859C17.9995 7.4205 17.521 6.11396 16.6455 5.07003C15.7701 4.0261 14.5513 3.30889 13.1955 3.03975L12 2.80153V2.80299ZM21.33 17.5372C21.6645 18.1905 22 18.9987 22 18.9987H2C2 18.9987 2.3355 18.1905 2.67 17.5372C4.02 14.9066 4.5 10.0547 4.5 8.76859C4.5 5.23191 7.08 2.2798 10.5075 1.60607C10.4866 1.40287 10.5096 1.19764 10.575 1.00363C10.6405 0.809619 10.747 0.631132 10.8876 0.479681C11.0283 0.328229 11.1999 0.207175 11.3915 0.124326C11.5831 0.0414773 11.7904 -0.00132751 12 -0.00132751C12.2096 -0.00132751 12.4169 0.0414773 12.6085 0.124326C12.8001 0.207175 12.9717 0.328229 13.1124 0.479681C13.253 0.631132 13.3595 0.809619 13.4249 1.00363C13.4904 1.19764 13.5134 1.40287 13.4925 1.60607C15.1879 1.94206 16.7121 2.8386 17.8068 4.14387C18.9016 5.44914 19.4998 7.08293 19.5 8.76859C19.5 10.0547 19.98 14.9066 21.33 17.5372Z" fill="#6E6F77"/>
</g>
<defs>
<clipPath id="clip0_5_26">
<path d="M0 4C0 1.79086 1.79086 0 4 0H20C22.2091 0 24 1.79086 24 4V20C24 22.2091 22.2091 24 20 24H4C1.79086 24 0 22.2091 0 20V4Z" fill="white"/>
</clipPath>
</defs>
</svg>
