<svg width="18" height="12" viewBox="0 0 18 12" fill="none" xmlns="http://www.w3.org/2000/svg">
<path d="M7.87049 10.71L0.676486 2.487C-0.172514 1.5195 0.517486 5.51559e-07 1.80599 5.51559e-07H16.194C16.4824 -0.000246689 16.7647 0.0826318 17.0072 0.238711C17.2496 0.394791 17.442 0.617455 17.5612 0.88004C17.6803 1.14262 17.7213 1.434 17.6792 1.71927C17.637 2.00454 17.5135 2.27161 17.3235 2.4885L10.1295 10.7085C9.9887 10.8696 9.81506 10.9987 9.62025 11.0872C9.42544 11.1757 9.21395 11.2215 8.99999 11.2215C8.78602 11.2215 8.57454 11.1757 8.37972 11.0872C8.18491 10.9987 8.01128 10.8696 7.87049 10.7085V10.71Z" fill="#39434D"/>
</svg>
