<svg width="21" height="21" viewBox="0 0 21 21" fill="none" xmlns="http://www.w3.org/2000/svg">
<path fill-rule="evenodd" clip-rule="evenodd" d="M6.5625 1.3125C5.17011 1.3125 3.83476 1.86562 2.85019 2.85019C1.86562 3.83476 1.3125 5.17011 1.3125 6.5625V14.4375C1.3125 15.8299 1.86562 17.1652 2.85019 18.1498C3.83476 19.1344 5.17011 19.6875 6.5625 19.6875H14.4375C15.8299 19.6875 17.1652 19.1344 18.1498 18.1498C19.1344 17.1652 19.6875 15.8299 19.6875 14.4375V6.5625C19.6875 5.17011 19.1344 3.83476 18.1498 2.85019C17.1652 1.86562 15.8299 1.3125 14.4375 1.3125H6.5625Z" fill="#6E6F77"/>
<path fill-rule="evenodd" clip-rule="evenodd" d="M4.99372 9.88141C5.33542 9.5397 5.88944 9.5397 6.23115 9.88141L9.36872 13.019C9.71042 13.3607 9.71042 13.9147 9.36872 14.2564C9.02701 14.5981 8.47299 14.5981 8.13128 14.2564L4.99372 11.1189C4.65201 10.7771 4.65201 10.2231 4.99372 9.88141Z" fill="white"/>
<path fill-rule="evenodd" clip-rule="evenodd" d="M8.13128 14.2564C7.78958 13.9147 7.78958 13.3607 8.13128 13.019L14.7688 6.38141C15.1106 6.0397 15.6646 6.0397 16.0063 6.38141C16.348 6.72312 16.348 7.27714 16.0063 7.61885L9.36872 14.2564C9.02701 14.5981 8.47299 14.5981 8.13128 14.2564Z" fill="white"/>
</svg>
