<svg width="21" height="21" viewBox="0 0 21 21" fill="none" xmlns="http://www.w3.org/2000/svg">
<path fill-rule="evenodd" clip-rule="evenodd" d="M14.4375 2.625H6.5625C5.51821 2.625 4.51669 3.03984 3.77827 3.77827C3.03984 4.51669 2.625 5.51821 2.625 6.5625V14.4375C2.625 15.4818 3.03984 16.4833 3.77827 17.2217C4.51669 17.9602 5.51821 18.375 6.5625 18.375H14.4375C15.4818 18.375 16.4833 17.9602 17.2217 17.2217C17.9602 16.4833 18.375 15.4818 18.375 14.4375V6.5625C18.375 5.51821 17.9602 4.51669 17.2217 3.77827C16.4833 3.03984 15.4818 2.625 14.4375 2.625ZM6.5625 1.3125C5.17011 1.3125 3.83476 1.86562 2.85019 2.85019C1.86562 3.83476 1.3125 5.17011 1.3125 6.5625V14.4375C1.3125 15.8299 1.86562 17.1652 2.85019 18.1498C3.83476 19.1344 5.17011 19.6875 6.5625 19.6875H14.4375C15.8299 19.6875 17.1652 19.1344 18.1498 18.1498C19.1344 17.1652 19.6875 15.8299 19.6875 14.4375V6.5625C19.6875 5.17011 19.1344 3.83476 18.1498 2.85019C17.1652 1.86562 15.8299 1.3125 14.4375 1.3125H6.5625Z" fill="#6E6F77"/>
</svg>
