<svg width="24" height="24" viewBox="0 0 24 24" fill="none" xmlns="http://www.w3.org/2000/svg">
<path fill-rule="evenodd" clip-rule="evenodd" d="M20.781 5.46906C20.8508 5.53873 20.9063 5.62149 20.9441 5.71261C20.9819 5.80373 21.0013 5.90141 21.0013 6.00006C21.0013 6.09871 20.9819 6.19639 20.9441 6.28751C20.9063 6.37863 20.8508 6.46139 20.781 6.53106L10.281 17.0311C10.2113 17.1009 10.1286 17.1563 10.0374 17.1941C9.94633 17.2319 9.84865 17.2514 9.75 17.2514C9.65135 17.2514 9.55366 17.2319 9.46255 17.1941C9.37143 17.1563 9.28867 17.1009 9.219 17.0311L3.969 11.7811C3.82817 11.6402 3.74905 11.4492 3.74905 11.2501C3.74905 11.0509 3.82817 10.8599 3.969 10.7191C4.10983 10.5782 4.30083 10.4991 4.5 10.4991C4.69916 10.4991 4.89017 10.5782 5.031 10.7191L9.75 15.4396L19.719 5.46906C19.7887 5.39921 19.8714 5.3438 19.9625 5.30599C20.0537 5.26818 20.1513 5.24872 20.25 5.24872C20.3486 5.24872 20.4463 5.26818 20.5374 5.30599C20.6286 5.3438 20.7113 5.39921 20.781 5.46906Z" fill="#6E6F77"/>
</svg>
