<svg width="24" height="24" viewBox="0 0 24 24" fill="none" xmlns="http://www.w3.org/2000/svg">
<path fill-rule="evenodd" clip-rule="evenodd" d="M12 21.625C14.5527 21.625 17.0009 20.6109 18.8059 18.8059C20.6109 17.0009 21.625 14.5527 21.625 12C21.625 9.44729 20.6109 6.99913 18.8059 5.1941C17.0009 3.38906 14.5527 2.375 12 2.375C9.44729 2.375 6.99913 3.38906 5.1941 5.1941C3.38906 6.99913 2.375 9.44729 2.375 12C2.375 14.5527 3.38906 17.0009 5.1941 18.8059C6.99913 20.6109 9.44729 21.625 12 21.625ZM23 12C23 14.9174 21.8411 17.7153 19.7782 19.7782C17.7153 21.8411 14.9174 23 12 23C9.08262 23 6.28473 21.8411 4.22183 19.7782C2.15893 17.7153 1 14.9174 1 12C1 9.08262 2.15893 6.28473 4.22183 4.22183C6.28473 2.15893 9.08262 1 12 1C14.9174 1 17.7153 2.15893 19.7782 4.22183C21.8411 6.28473 23 9.08262 23 12Z" fill="#6E6F77"/>
<path fill-rule="evenodd" clip-rule="evenodd" d="M11.25 5.5C11.4489 5.5 11.6397 5.57902 11.7803 5.71967C11.921 5.86032 12 6.05109 12 6.25V13.065L16.872 15.849C17.0397 15.9502 17.1612 16.1129 17.2104 16.3024C17.2597 16.492 17.2329 16.6933 17.1358 16.8633C17.0386 17.0333 16.8788 17.1586 16.6905 17.2124C16.5022 17.2661 16.3003 17.2441 16.128 17.151L10.878 14.151C10.7632 14.0854 10.6678 13.9907 10.6014 13.8764C10.535 13.762 10.5 13.6322 10.5 13.5V6.25C10.5 6.05109 10.579 5.86032 10.7197 5.71967C10.8603 5.57902 11.0511 5.5 11.25 5.5Z" fill="#6E6F77"/>
</svg>
