<svg width="24" height="24" viewBox="0 0 24 24" fill="none" xmlns="http://www.w3.org/2000/svg">
<path fill-rule="evenodd" clip-rule="evenodd" d="M17.781 6.21897C17.8508 6.28864 17.9063 6.3714 17.9441 6.46252C17.9819 6.55363 18.0013 6.65132 18.0013 6.74997C18.0013 6.84862 17.9819 6.9463 17.9441 7.03742C17.9063 7.12854 17.8508 7.2113 17.781 7.28097L7.281 17.781C7.14017 17.9218 6.94916 18.0009 6.75 18.0009C6.55084 18.0009 6.35983 17.9218 6.219 17.781C6.07817 17.6401 5.99905 17.4491 5.99905 17.25C5.99905 17.0508 6.07817 16.8598 6.219 16.719L16.719 6.21897C16.7887 6.14912 16.8714 6.09371 16.9626 6.0559C17.0537 6.01809 17.1514 5.99863 17.25 5.99863C17.3487 5.99863 17.4463 6.01809 17.5375 6.0559C17.6286 6.09371 17.7113 6.14912 17.781 6.21897Z" fill="#6E6F77"/>
<path fill-rule="evenodd" clip-rule="evenodd" d="M6.219 6.21897C6.14915 6.28864 6.09374 6.3714 6.05593 6.46252C6.01812 6.55363 5.99866 6.65132 5.99866 6.74997C5.99866 6.84862 6.01812 6.9463 6.05593 7.03742C6.09374 7.12854 6.14915 7.2113 6.219 7.28097L16.719 17.781C16.8598 17.9218 17.0508 18.0009 17.25 18.0009C17.4492 18.0009 17.6402 17.9218 17.781 17.781C17.9218 17.6401 18.0009 17.4491 18.0009 17.25C18.0009 17.0508 17.9218 16.8598 17.781 16.719L7.281 6.21897C7.21133 6.14912 7.12857 6.09371 7.03745 6.0559C6.94633 6.01809 6.84865 5.99863 6.75 5.99863C6.65135 5.99863 6.55367 6.01809 6.46255 6.0559C6.37143 6.09371 6.28867 6.14912 6.219 6.21897Z" fill="#6E6F77"/>
</svg>
