<svg width="24" height="24" viewBox="0 0 24 24" fill="none" xmlns="http://www.w3.org/2000/svg">
<g clip-path="url(#clip0_7_5)">
<path fill-rule="evenodd" clip-rule="evenodd" d="M13.2668 2.45024C12.8978 1.19774 11.1248 1.19774 10.7558 2.45024L10.6148 2.92874C10.4962 3.33066 10.2892 3.70096 10.0089 4.01253C9.72872 4.32409 9.38234 4.56901 8.99519 4.72937C8.60803 4.88972 8.18991 4.96144 7.77145 4.93927C7.35299 4.9171 6.94479 4.80161 6.57675 4.60124L6.13875 4.36124C4.99275 3.73874 3.73875 4.99124 4.36275 6.13874L4.60125 6.57674C4.80161 6.94479 4.91711 7.35299 4.93928 7.77145C4.96145 8.18991 4.88973 8.60803 4.72938 8.99518C4.56902 9.38233 4.32409 9.72871 4.01253 10.0089C3.70097 10.2892 3.33067 10.4962 2.92875 10.6147L2.45025 10.7557C1.19775 11.1247 1.19775 12.8977 2.45025 13.2667L2.92875 13.4077C3.33088 13.5263 3.70138 13.7333 4.0131 14.0136C4.32482 14.294 4.56985 14.6405 4.73022 15.0279C4.8906 15.4152 4.96225 15.8335 4.93994 16.2522C4.91762 16.6708 4.8019 17.0791 4.60125 17.4472L4.36125 17.8837C3.73875 19.0297 4.99125 20.2837 6.13875 19.6597L6.57675 19.4212C6.94489 19.2209 7.35319 19.1055 7.77173 19.0834C8.19028 19.0613 8.60846 19.1332 8.99563 19.2937C9.3828 19.4542 9.72916 19.6993 10.0093 20.011C10.2895 20.3227 10.4963 20.6932 10.6148 21.0952L10.7558 21.5722C11.1248 22.8247 12.8978 22.8247 13.2668 21.5722L13.4078 21.0937C13.5263 20.6916 13.7333 20.3211 14.0136 20.0094C14.294 19.6977 14.6405 19.4527 15.0279 19.2923C15.4152 19.1319 15.8335 19.0602 16.2522 19.0826C16.6708 19.1049 17.0792 19.2206 17.4473 19.4212L17.8838 19.6612C19.0298 20.2837 20.2838 19.0312 19.6598 17.8837L19.4213 17.4472C19.2206 17.079 19.105 16.6706 19.0827 16.2519C19.0605 15.8332 19.1323 15.4148 19.2928 15.0274C19.4534 14.6401 19.6986 14.2935 20.0104 14.0133C20.3223 13.733 20.693 13.5261 21.0953 13.4077L21.5723 13.2667C22.8248 12.8977 22.8248 11.1247 21.5723 10.7557L21.0938 10.6147C20.6918 10.4962 20.3215 10.2892 20.01 10.0089C19.6984 9.72871 19.4535 9.38233 19.2931 8.99518C19.1328 8.60803 19.0611 8.18991 19.0832 7.77145C19.1054 7.35299 19.2209 6.94479 19.4213 6.57674L19.6613 6.13874C20.2838 4.99274 19.0313 3.73874 17.8838 4.36274L17.4473 4.60124C17.0791 4.80217 16.6706 4.91812 16.2518 4.94058C15.833 4.96305 15.4145 4.89145 15.0269 4.73106C14.6394 4.57066 14.2927 4.32554 14.0122 4.01366C13.7318 3.70179 13.5247 3.33108 13.4063 2.92874L13.2653 2.45024H13.2668ZM9.31725 2.02574C10.1078 -0.659257 13.9148 -0.659257 14.7053 2.02574L14.8463 2.50424C14.9015 2.69167 14.9979 2.86437 15.1285 3.00968C15.2591 3.15499 15.4206 3.26923 15.6011 3.34402C15.7816 3.41881 15.9766 3.45226 16.1717 3.44192C16.3668 3.43158 16.5572 3.3777 16.7288 3.28424L17.1668 3.04424C19.6268 1.70624 22.3178 4.39574 20.9768 6.85574L20.7383 7.29374C20.6448 7.46533 20.5909 7.65566 20.5806 7.85078C20.5702 8.04589 20.6037 8.24085 20.6785 8.42136C20.7533 8.60186 20.8675 8.76335 21.0128 8.89397C21.1581 9.02459 21.3308 9.12104 21.5183 9.17624L21.9968 9.31724C24.6818 10.1077 24.6818 13.9147 21.9968 14.7052L21.5183 14.8462C21.3308 14.9015 21.1581 14.9979 21.0128 15.1285C20.8675 15.2591 20.7533 15.4206 20.6785 15.6011C20.6037 15.7816 20.5702 15.9766 20.5806 16.1717C20.5909 16.3668 20.6448 16.5572 20.7383 16.7287L20.9783 17.1667C22.3178 19.6267 19.6253 22.3177 17.1668 20.9767L16.7288 20.7382C16.5572 20.6448 16.3668 20.5909 16.1717 20.5806C15.9766 20.5702 15.7816 20.6037 15.6011 20.6785C15.4206 20.7533 15.2591 20.8675 15.1285 21.0128C14.9979 21.1581 14.9015 21.3308 14.8463 21.5182L14.7053 21.9967C13.9148 24.6817 10.1078 24.6817 9.31725 21.9967L9.17625 21.5182C9.12105 21.3308 9.0246 21.1581 8.89398 21.0128C8.76336 20.8675 8.60187 20.7533 8.42136 20.6785C8.24086 20.6037 8.0459 20.5702 7.85078 20.5806C7.65567 20.5909 7.46534 20.6448 7.29375 20.7382L6.85575 20.9782C4.39575 22.3177 1.70625 19.6252 3.04575 17.1667L3.28425 16.7287C3.37771 16.5572 3.43158 16.3668 3.44193 16.1717C3.45227 15.9766 3.41882 15.7816 3.34403 15.6011C3.26924 15.4206 3.155 15.2591 3.00969 15.1285C2.86438 14.9979 2.69168 14.9015 2.50425 14.8462L2.02575 14.7052C-0.659249 13.9147 -0.659249 10.1077 2.02575 9.31724L2.50425 9.17624C2.69168 9.12104 2.86438 9.02459 3.00969 8.89397C3.155 8.76335 3.26924 8.60186 3.34403 8.42136C3.41882 8.24085 3.45227 8.04589 3.44193 7.85078C3.43158 7.65566 3.37771 7.46533 3.28425 7.29374L3.04425 6.85574C1.70625 4.39574 4.39725 1.70624 6.85575 3.04574L7.29375 3.28424C7.46534 3.3777 7.65567 3.43158 7.85078 3.44192C8.0459 3.45226 8.24086 3.41881 8.42136 3.34402C8.60187 3.26923 8.76336 3.15499 8.89398 3.00968C9.0246 2.86437 9.12105 2.69167 9.17625 2.50424L9.31725 2.02574Z" fill="#6E6F77"/>
<path fill-rule="evenodd" clip-rule="evenodd" d="M12 8.631C11.1065 8.631 10.2496 8.98594 9.61775 9.61775C8.98594 10.2496 8.631 11.1065 8.631 12C8.631 12.8935 8.98594 13.7504 9.61775 14.3822C10.2496 15.014 11.1065 15.369 12 15.369C12.8935 15.369 13.7504 15.014 14.3822 14.3822C15.014 13.7504 15.369 12.8935 15.369 12C15.369 11.1065 15.014 10.2496 14.3822 9.61775C13.7504 8.98594 12.8935 8.631 12 8.631ZM7.131 12C7.131 11.3606 7.25694 10.7274 7.50163 10.1367C7.74632 9.54598 8.10497 9.00922 8.55709 8.55709C9.00922 8.10497 9.54598 7.74632 10.1367 7.50163C10.7274 7.25694 11.3606 7.131 12 7.131C12.6394 7.131 13.2725 7.25694 13.8633 7.50163C14.454 7.74632 14.9908 8.10497 15.4429 8.55709C15.895 9.00922 16.2537 9.54598 16.4984 10.1367C16.7431 10.7274 16.869 11.3606 16.869 12C16.869 13.2913 16.356 14.5298 15.4429 15.4429C14.5298 16.356 13.2913 16.869 12 16.869C10.7087 16.869 9.47021 16.356 8.55709 15.4429C7.64398 14.5298 7.131 13.2913 7.131 12Z" fill="#6E6F77"/>
</g>
<defs>
<clipPath id="clip0_7_5">
<path d="M0 4C0 1.79086 1.79086 0 4 0H20C22.2091 0 24 1.79086 24 4V20C24 22.2091 22.2091 24 20 24H4C1.79086 24 0 22.2091 0 20V4Z" fill="white"/>
</clipPath>
</defs>
</svg>
