<svg width="24" height="24" viewBox="0 0 24 24" fill="none" xmlns="http://www.w3.org/2000/svg">
<path d="M0 1H1.5V23H0V1ZM1.5 21.625H23V23H1.5V21.625Z" fill="#6E6F77"/>
<path fill-rule="evenodd" clip-rule="evenodd" d="M20.5852 7.46802L14.0617 15.625L9.50024 11.0605L4.03124 16.531L2.96924 15.469L9.50024 8.93952L13.9387 13.375L19.4137 6.53052L20.5852 7.46652V7.46802Z" fill="#6E6F77"/>
<path fill-rule="evenodd" clip-rule="evenodd" d="M14 6.25C14 6.05109 14.079 5.86032 14.2197 5.71967C14.3603 5.57902 14.5511 5.5 14.75 5.5H20.75C20.9489 5.5 21.1397 5.57902 21.2803 5.71967C21.421 5.86032 21.5 6.05109 21.5 6.25V12.25C21.5 12.4489 21.421 12.6397 21.2803 12.7803C21.1397 12.921 20.9489 13 20.75 13C20.5511 13 20.3603 12.921 20.2197 12.7803C20.079 12.6397 20 12.4489 20 12.25V7H14.75C14.5511 7 14.3603 6.92098 14.2197 6.78033C14.079 6.63968 14 6.44891 14 6.25Z" fill="#6E6F77"/>
</svg>
