<svg width="199" height="62" viewBox="0 0 199 62" fill="none" xmlns="http://www.w3.org/2000/svg">
<g filter="url(#filter0_d_540_25587)">
<circle cx="29" cy="29" r="20" fill="#A167BC" stroke="white"/>
<path d="M22.014 23.982C21.692 25.858 21.118 27.692 20.236 28.868C20.488 29.008 20.95 29.288 21.146 29.442C22.014 28.154 22.672 26.194 23.036 24.15L22.014 23.982ZM24.114 23.366V35.434H25.164V23.366H24.114ZM21.398 30.338V31.318H27.922V30.338H21.398ZM20.432 34.804V35.798H28.44V34.804H20.432ZM22 26.292L21.608 27.286H28.076V26.292H22ZM15.56 26.138V27.118H19.858V26.138H15.56ZM17.478 23.254C17.044 25.9 16.288 29.624 15.728 31.738L16.596 32.214C17.184 29.89 17.982 26.138 18.486 23.352L17.478 23.254ZM16.176 31.206C17.618 32.228 19.312 33.754 20.082 34.818L20.754 33.95C19.97 32.928 18.234 31.472 16.792 30.464L16.176 31.206ZM19.494 26.138V26.348C19.214 31.122 17.884 34.062 15.672 35.28C15.896 35.504 16.162 35.882 16.316 36.134C18.78 34.608 20.138 31.654 20.46 26.194L19.858 26.11L19.676 26.138H19.494ZM34.096 34.594V35.56H40.858V34.594H34.096ZM33.62 24.654V25.592H38.758V24.654H33.62ZM34.25 23.198C33.438 24.724 31.828 26.53 29.518 27.79C29.756 27.972 30.106 28.336 30.26 28.602C32.696 27.16 34.376 25.256 35.426 23.436L34.25 23.198ZM38.408 24.654V24.836C36.952 28.518 33.074 31.262 29.448 32.312C29.672 32.536 29.938 32.97 30.064 33.25C33.872 32.018 37.82 29.204 39.5 24.976L38.8 24.598L38.604 24.654H38.408ZM31.87 27.146C32.976 27.93 34.306 29.106 34.894 29.904L35.748 29.148C35.104 28.35 33.76 27.23 32.654 26.474L31.87 27.146ZM40.34 30.17V36.148H41.418V30.17H40.34ZM34.572 30.17H34.362L33.522 30.996V36.12H34.572V31.136H40.872V30.17H34.572Z" fill="white"/>
</g>
<g filter="url(#filter1_d_540_25587)">
<circle cx="66" cy="29" r="20" fill="#A167BC" stroke="white"/>
<path d="M59.014 23.982C58.692 25.858 58.118 27.692 57.236 28.868C57.488 29.008 57.95 29.288 58.146 29.442C59.014 28.154 59.672 26.194 60.036 24.15L59.014 23.982ZM61.114 23.366V35.434H62.164V23.366H61.114ZM58.398 30.338V31.318H64.922V30.338H58.398ZM57.432 34.804V35.798H65.44V34.804H57.432ZM59 26.292L58.608 27.286H65.076V26.292H59ZM52.56 26.138V27.118H56.858V26.138H52.56ZM54.478 23.254C54.044 25.9 53.288 29.624 52.728 31.738L53.596 32.214C54.184 29.89 54.982 26.138 55.486 23.352L54.478 23.254ZM53.176 31.206C54.618 32.228 56.312 33.754 57.082 34.818L57.754 33.95C56.97 32.928 55.234 31.472 53.792 30.464L53.176 31.206ZM56.494 26.138V26.348C56.214 31.122 54.884 34.062 52.672 35.28C52.896 35.504 53.162 35.882 53.316 36.134C55.78 34.608 57.138 31.654 57.46 26.194L56.858 26.11L56.676 26.138H56.494ZM71.096 34.594V35.56H77.858V34.594H71.096ZM70.62 24.654V25.592H75.758V24.654H70.62ZM71.25 23.198C70.438 24.724 68.828 26.53 66.518 27.79C66.756 27.972 67.106 28.336 67.26 28.602C69.696 27.16 71.376 25.256 72.426 23.436L71.25 23.198ZM75.408 24.654V24.836C73.952 28.518 70.074 31.262 66.448 32.312C66.672 32.536 66.938 32.97 67.064 33.25C70.872 32.018 74.82 29.204 76.5 24.976L75.8 24.598L75.604 24.654H75.408ZM68.87 27.146C69.976 27.93 71.306 29.106 71.894 29.904L72.748 29.148C72.104 28.35 70.76 27.23 69.654 26.474L68.87 27.146ZM77.34 30.17V36.148H78.418V30.17H77.34ZM71.572 30.17H71.362L70.522 30.996V36.12H71.572V31.136H77.872V30.17H71.572Z" fill="white"/>
</g>
<circle cx="103" cy="28" r="19.5" fill="white" stroke="#6E6F77" stroke-dasharray="2 2"/>
<path fill-rule="evenodd" clip-rule="evenodd" d="M107.5 37C107.5 37 109 37 109 35.5C109 34 107.5 29.5 100 29.5C92.5 29.5 91 34 91 35.5C91 37 92.5 37 92.5 37H107.5ZM92.5075 35.584V35.581V35.584ZM92.533 35.5H107.467C107.474 35.4992 107.481 35.4982 107.488 35.497L107.5 35.494C107.499 35.125 107.269 34.015 106.252 32.998C105.274 32.02 103.434 31 100 31C96.565 31 94.726 32.02 93.748 32.998C92.731 34.015 92.503 35.125 92.5 35.494C92.511 35.4961 92.522 35.4981 92.533 35.5ZM107.494 35.584V35.581V35.584ZM100 26.5C100.796 26.5 101.559 26.1839 102.121 25.6213C102.684 25.0587 103 24.2956 103 23.5C103 22.7044 102.684 21.9413 102.121 21.3787C101.559 20.8161 100.796 20.5 100 20.5C99.2044 20.5 98.4413 20.8161 97.8787 21.3787C97.3161 21.9413 97 22.7044 97 23.5C97 24.2956 97.3161 25.0587 97.8787 25.6213C98.4413 26.1839 99.2044 26.5 100 26.5ZM104.5 23.5C104.5 24.6935 104.026 25.8381 103.182 26.682C102.338 27.5259 101.193 28 100 28C98.8065 28 97.6619 27.5259 96.818 26.682C95.9741 25.8381 95.5 24.6935 95.5 23.5C95.5 22.3065 95.9741 21.1619 96.818 20.318C97.6619 19.4741 98.8065 19 100 19C101.193 19 102.338 19.4741 103.182 20.318C104.026 21.1619 104.5 22.3065 104.5 23.5ZM111.25 23.5C111.449 23.5 111.64 23.579 111.78 23.7197C111.921 23.8603 112 24.0511 112 24.25V27.25C112 27.4489 111.921 27.6397 111.78 27.7803C111.64 27.921 111.449 28 111.25 28H108.25C108.051 28 107.86 27.921 107.72 27.7803C107.579 27.6397 107.5 27.4489 107.5 27.25C107.5 27.0511 107.579 26.8603 107.72 26.7197C107.86 26.579 108.051 26.5 108.25 26.5H110.5V24.25C110.5 24.0511 110.579 23.8603 110.72 23.7197C110.86 23.579 111.051 23.5 111.25 23.5Z" fill="#6E6F77"/>
<path fill-rule="evenodd" clip-rule="evenodd" d="M110.5 27.25C110.5 27.0511 110.579 26.8603 110.72 26.7197C110.86 26.579 111.051 26.5 111.25 26.5H114.25C114.449 26.5 114.64 26.579 114.78 26.7197C114.921 26.8603 115 27.0511 115 27.25C115 27.4489 114.921 27.6397 114.78 27.7803C114.64 27.921 114.449 28 114.25 28H112V30.25C112 30.4489 111.921 30.6397 111.78 30.7803C111.64 30.921 111.449 31 111.25 31C111.051 31 110.86 30.921 110.72 30.7803C110.579 30.6397 110.5 30.4489 110.5 30.25V27.25Z" fill="#6E6F77"/>
<path d="M167.1 27.2C166.64 28.62 165.8 30.52 165.08 31.74L165.96 32.02C166.7 30.84 167.58 29.01 168.22 27.48L167.1 27.2ZM163.89 31.45L164.01 32.45C165.9 32.36 168.69 32.21 171.29 32.05L171.32 31.13C168.66 31.26 165.74 31.39 163.89 31.45ZM169.03 29.4C169.89 30.47 170.9 31.96 171.35 32.89L172.32 32.38C171.83 31.44 170.84 30.04 169.94 28.98L169.03 29.4ZM166.07 23.83C165.51 25.27 164.54 26.68 163.47 27.54C163.72 27.7 164.18 28.04 164.38 28.24C165.42 27.26 166.47 25.72 167.13 24.12L166.07 23.83ZM169.84 23.83L168.9 24.22C169.66 25.61 170.86 27.26 171.8 28.24C171.98 27.99 172.34 27.62 172.6 27.42C171.68 26.58 170.47 25.08 169.84 23.83ZM175.53 28V28.76H180.45V28H175.53ZM175.37 29.71V30.5H180.64V29.71H175.37ZM178.55 28.24V32.66H179.39V28.24H178.55ZM176.54 28.28V30.14C176.54 30.67 176.33 31.69 175.39 32.26C175.59 32.39 175.88 32.65 176.01 32.82C177.1 32.08 177.36 30.77 177.36 30.14V28.28H176.54ZM174.32 25.35V25.99H177V25.35H174.32ZM178.94 25.35V25.99H181.64V25.35H178.94ZM181.27 23.97V31.68C181.27 31.83 181.22 31.89 181.06 31.89C180.9 31.9 180.39 31.9 179.88 31.88C180.01 32.13 180.14 32.57 180.17 32.82C180.94 32.83 181.44 32.81 181.77 32.65C182.1 32.49 182.2 32.21 182.2 31.69V23.97H181.27ZM174.4 23.97V24.67H176.7V26.72H174.4V27.42H177.59V23.97H174.4ZM181.74 23.97H178.37V27.44H181.74V26.74H179.27V24.67H181.74V23.97ZM173.84 23.97V32.85H174.77V23.97H173.84Z" fill="#343A40"/>
<path d="M151 9H195V7H151V9ZM198 12V44H200V12H198ZM195 47H151V49H195V47ZM148 44V12H146V44H148ZM151 47C149.343 47 148 45.6569 148 44H146C146 46.7614 148.239 49 151 49V47ZM198 44C198 45.6569 196.657 47 195 47V49C197.761 49 200 46.7614 200 44H198ZM195 9C196.657 9 198 10.3431 198 12H200C200 9.23858 197.761 7 195 7V9ZM151 7C148.239 7 146 9.23858 146 12H148C148 10.3431 149.343 9 151 9V7Z" fill="#BFC9D2"/>
<defs>
<filter id="filter0_d_540_25587" x="0" y="0" width="62" height="62" filterUnits="userSpaceOnUse" color-interpolation-filters="sRGB">
<feFlood flood-opacity="0" result="BackgroundImageFix"/>
<feColorMatrix in="SourceAlpha" type="matrix" values="0 0 0 0 0 0 0 0 0 0 0 0 0 0 0 0 0 0 127 0" result="hardAlpha"/>
<feOffset dx="2" dy="2"/>
<feGaussianBlur stdDeviation="5"/>
<feColorMatrix type="matrix" values="0 0 0 0 0 0 0 0 0 0 0 0 0 0 0 0 0 0 0.045 0"/>
<feBlend mode="normal" in2="BackgroundImageFix" result="effect1_dropShadow_540_25587"/>
<feBlend mode="normal" in="SourceGraphic" in2="effect1_dropShadow_540_25587" result="shape"/>
</filter>
<filter id="filter1_d_540_25587" x="37" y="0" width="62" height="62" filterUnits="userSpaceOnUse" color-interpolation-filters="sRGB">
<feFlood flood-opacity="0" result="BackgroundImageFix"/>
<feColorMatrix in="SourceAlpha" type="matrix" values="0 0 0 0 0 0 0 0 0 0 0 0 0 0 0 0 0 0 127 0" result="hardAlpha"/>
<feOffset dx="2" dy="2"/>
<feGaussianBlur stdDeviation="5"/>
<feColorMatrix type="matrix" values="0 0 0 0 0 0 0 0 0 0 0 0 0 0 0 0 0 0 0.045 0"/>
<feBlend mode="normal" in2="BackgroundImageFix" result="effect1_dropShadow_540_25587"/>
<feBlend mode="normal" in="SourceGraphic" in2="effect1_dropShadow_540_25587" result="shape"/>
</filter>
</defs>
</svg>
