<svg width="24" height="24" viewBox="0 0 24 24" fill="none" xmlns="http://www.w3.org/2000/svg">
<path d="M18.3006 9.46668H12.6004V11.4921C12.6004 12.9629 11.5849 14.3041 10.1797 14.4513C8.5638 14.6205 7.20025 13.3023 7.20025 11.6538V6.93981L6.2811 7.51509C4.62017 8.5567 3.60163 10.4274 3.60163 12.4505L0.601535 14.2588C0.0296407 14.6005 -0.172116 15.3671 0.160895 15.9627L3.16099 21.3758C3.49382 21.9714 4.22978 22.1764 4.80167 21.8347L8.6793 19.5011H13.802C15.1239 19.5011 16.2021 18.3783 16.2021 17.0016C17.1962 17.0016 18.0021 16.1623 18.0021 15.127V13.2511H18.3021C18.799 13.2511 19.2022 12.8313 19.2022 12.3138V10.4392C19.2007 9.91972 18.7994 9.46668 18.3006 9.46668ZM23.8396 8.03726L20.8413 2.62421C20.5085 2.02861 19.7725 1.82357 19.2007 2.16531L15.323 4.49886H12.9766C11.5571 4.49886 10.1666 4.91323 8.96019 5.69512C8.61405 5.92437 8.40029 6.32274 8.40029 6.75234V11.6889C8.40029 12.5532 9.07082 13.2511 9.90034 13.2511C10.7302 13.2511 11.4004 12.5528 11.4004 11.6889V8.21691H18.3006C19.4605 8.21691 20.4007 9.19603 20.4007 10.404V11.5171L23.4008 9.71078C23.9746 9.40029 24.1696 8.63481 23.8396 8.03726Z" fill="#6E6F77"/>
</svg>
