<svg width="24" height="24" viewBox="0 0 24 24" fill="none" xmlns="http://www.w3.org/2000/svg">
<path fill-rule="evenodd" clip-rule="evenodd" d="M11.2326 1.22034C11.3005 1.1505 11.3811 1.09508 11.4699 1.05727C11.5587 1.01946 11.6539 1 11.75 1C11.8461 1 11.9413 1.01946 12.0301 1.05727C12.1189 1.09508 12.1995 1.1505 12.2674 1.22034L21.0366 10.2203C21.1044 10.2901 21.1582 10.3729 21.1948 10.464C21.2314 10.5552 21.2502 10.6528 21.25 10.7513V21.2513C21.25 21.4503 21.173 21.641 21.036 21.7817C20.8989 21.9223 20.713 22.0013 20.5192 22.0013H13.9423C13.7485 22.0013 13.5626 21.9223 13.4256 21.7817C13.2885 21.641 13.2115 21.4503 13.2115 21.2513V15.2513H10.2885V21.2513C10.2885 21.4503 10.2115 21.641 10.0744 21.7817C9.93738 21.9223 9.7515 22.0013 9.55769 22.0013H2.98077C2.78696 22.0013 2.60108 21.9223 2.46404 21.7817C2.32699 21.641 2.25 21.4503 2.25 21.2513V10.7513C2.24983 10.6528 2.26859 10.5552 2.3052 10.464C2.34182 10.3729 2.39557 10.2901 2.46339 10.2203L11.2326 1.22034ZM3.71154 11.0618V20.5013H8.82692V14.5013C8.82692 14.3024 8.90391 14.1117 9.04096 13.971C9.17801 13.8304 9.36388 13.7513 9.55769 13.7513H13.9423C14.1361 13.7513 14.322 13.8304 14.459 13.971C14.5961 14.1117 14.6731 14.3024 14.6731 14.5013V20.5013H19.7885V11.0618L11.75 2.81184L3.71154 11.0618Z" fill="#6E6F77"/>
<path fill-rule="evenodd" clip-rule="evenodd" d="M19.5 3.75V9L16.5 6V3.75C16.5 3.55109 16.579 3.36032 16.7197 3.21967C16.8603 3.07902 17.0511 3 17.25 3H18.75C18.9489 3 19.1397 3.07902 19.2803 3.21967C19.421 3.36032 19.5 3.55109 19.5 3.75Z" fill="#6E6F77"/>
</svg>
