<svg width="24" height="24" viewBox="0 0 24 24" fill="none" xmlns="http://www.w3.org/2000/svg">
<path fill-rule="evenodd" clip-rule="evenodd" d="M9 17.2222C9 17.0159 9.06705 16.8181 9.18639 16.6722C9.30573 16.5264 9.46759 16.4444 9.63636 16.4444H22.3636C22.5324 16.4444 22.6943 16.5264 22.8136 16.6722C22.933 16.8181 23 17.0159 23 17.2222C23 17.4285 22.933 17.6263 22.8136 17.7722C22.6943 17.9181 22.5324 18 22.3636 18H9.63636C9.46759 18 9.30573 17.9181 9.18639 17.7722C9.06705 17.6263 9 17.4285 9 17.2222ZM9 11C9 10.7937 9.06705 10.5959 9.18639 10.45C9.30573 10.3042 9.46759 10.2222 9.63636 10.2222H22.3636C22.5324 10.2222 22.6943 10.3042 22.8136 10.45C22.933 10.5959 23 10.7937 23 11C23 11.2063 22.933 11.4041 22.8136 11.55C22.6943 11.6958 22.5324 11.7778 22.3636 11.7778H9.63636C9.46759 11.7778 9.30573 11.6958 9.18639 11.55C9.06705 11.4041 9 11.2063 9 11ZM9 4.77778C9 4.5715 9.06705 4.37367 9.18639 4.22781C9.30573 4.08194 9.46759 4 9.63636 4H22.3636C22.5324 4 22.6943 4.08194 22.8136 4.22781C22.933 4.37367 23 4.5715 23 4.77778C23 4.98406 22.933 5.18189 22.8136 5.32775C22.6943 5.47361 22.5324 5.55556 22.3636 5.55556H9.63636C9.46759 5.55556 9.30573 5.47361 9.18639 5.32775C9.06705 5.18189 9 4.98406 9 4.77778Z" fill="#6E6F77"/>
<line x1="2" y1="10.9393" x2="6.93934" y2="6" stroke="#6E6F77" stroke-width="1.5" stroke-linecap="round"/>
<line x1="2.06066" y1="11" x2="7" y2="15.9393" stroke="#6E6F77" stroke-width="1.5" stroke-linecap="round"/>
</svg>
