<svg width="36" height="36" viewBox="0 0 36 36" fill="none" xmlns="http://www.w3.org/2000/svg">
<path fill-rule="evenodd" clip-rule="evenodd" d="M8 0.75H28C29.3261 0.75 30.5979 1.27678 31.5355 2.21447C32.4732 3.15215 33 4.42392 33 5.75V30.75C33 32.0761 32.4732 33.3479 31.5355 34.2855C30.5979 35.2232 29.3261 35.75 28 35.75H8C6.67392 35.75 5.40215 35.2232 4.46447 34.2855C3.52678 33.3479 3 32.0761 3 30.75V5.75C3 4.42392 3.52678 3.15215 4.46447 2.21447C5.40215 1.27678 6.67392 0.75 8 0.75ZM8 3.25C7.33696 3.25 6.70107 3.51339 6.23223 3.98223C5.76339 4.45107 5.5 5.08696 5.5 5.75V30.75C5.5 31.413 5.76339 32.0489 6.23223 32.5178C6.70107 32.9866 7.33696 33.25 8 33.25H28C28.663 33.25 29.2989 32.9866 29.7678 32.5178C30.2366 32.0489 30.5 31.413 30.5 30.75V5.75C30.5 5.08696 30.2366 4.45107 29.7678 3.98223C29.2989 3.51339 28.663 3.25 28 3.25H8Z" fill="#DC3545"/>
<path d="M10.5 20.625H11.9206V18.7601H12.6111C13.865 18.7601 14.9444 18.1711 14.9444 16.8347C14.9444 15.4455 13.8729 15 12.5793 15H10.5V20.625ZM11.9206 17.6955V16.0721H12.5C13.1825 16.0721 13.5634 16.2685 13.5634 16.8347C13.5634 17.3859 13.2301 17.6955 12.5396 17.6955H11.9206Z" fill="#DC3545"/>
<path d="M15.9485 20.625H17.7262C19.4484 20.625 20.6389 19.7416 20.6389 17.7861C20.6389 15.8305 19.4484 15 17.6469 15H15.9485V20.625ZM17.3691 19.5378V16.0797H17.5596C18.5119 16.0797 19.1865 16.4497 19.1865 17.7861C19.1865 19.1225 18.5119 19.5378 17.5596 19.5378H17.3691Z" fill="#DC3545"/>
<path d="M21.7302 20.625H23.1508V18.4807H25.1667V17.3557H23.1508V16.125H25.5V15H21.7302V20.625Z" fill="#DC3545"/>
</svg>
