<svg width="24" height="24" viewBox="0 0 24 24" fill="none" xmlns="http://www.w3.org/2000/svg">
<path fill-rule="evenodd" clip-rule="evenodd" d="M14.663 14.663C14.8023 14.5235 14.9677 14.4129 15.1498 14.3374C15.3319 14.2619 15.5271 14.2231 15.7242 14.2231C15.9214 14.2231 16.1166 14.2619 16.2987 14.3374C16.4808 14.4129 16.6462 14.5235 16.7855 14.663L22.5605 20.438C22.842 20.7193 23.0002 21.1008 23.0003 21.4987C23.0004 21.8966 22.8425 22.2783 22.5612 22.5597C22.28 22.8412 21.8984 22.9994 21.5005 22.9996C21.1026 22.9997 20.721 22.8418 20.4395 22.5605L14.6645 16.7855C14.525 16.6462 14.4144 16.4808 14.3389 16.2987C14.2634 16.1166 14.2246 15.9214 14.2246 15.7242C14.2246 15.5271 14.2634 15.3319 14.3389 15.1498C14.4144 14.9677 14.525 14.8023 14.6645 14.663H14.663Z" fill="#6E6F77"/>
<path fill-rule="evenodd" clip-rule="evenodd" d="M9.5 16.6923C10.4445 16.6923 11.3798 16.5063 12.2524 16.1448C13.125 15.7834 13.9179 15.2536 14.5857 14.5857C15.2536 13.9179 15.7834 13.125 16.1448 12.2524C16.5063 11.3798 16.6923 10.4445 16.6923 9.5C16.6923 8.55549 16.5063 7.62023 16.1448 6.74762C15.7834 5.87501 15.2536 5.08214 14.5857 4.41427C13.9179 3.7464 13.125 3.21662 12.2524 2.85517C11.3798 2.49373 10.4445 2.30769 9.5 2.30769C7.59248 2.30769 5.76309 3.06545 4.41427 4.41427C3.06545 5.76309 2.30769 7.59248 2.30769 9.5C2.30769 11.4075 3.06545 13.2369 4.41427 14.5857C5.76309 15.9345 7.59248 16.6923 9.5 16.6923ZM18 9.5C18 11.7543 17.1045 13.9163 15.5104 15.5104C13.9163 17.1045 11.7543 18 9.5 18C7.24566 18 5.08365 17.1045 3.48959 15.5104C1.89553 13.9163 1 11.7543 1 9.5C1 7.24566 1.89553 5.08365 3.48959 3.48959C5.08365 1.89553 7.24566 1 9.5 1C11.7543 1 13.9163 1.89553 15.5104 3.48959C17.1045 5.08365 18 7.24566 18 9.5Z" fill="#6E6F77"/>
</svg>
