<svg width="24" height="24" viewBox="0 0 24 24" fill="none" xmlns="http://www.w3.org/2000/svg">
<path fill-rule="evenodd" clip-rule="evenodd" d="M16.5 5.25C16.6989 5.25 16.8897 5.32902 17.0303 5.46967C17.171 5.61032 17.25 5.80109 17.25 6V19.5C17.25 19.6989 17.171 19.8897 17.0303 20.0303C16.8897 20.171 16.6989 20.25 16.5 20.25C16.3011 20.25 16.1103 20.171 15.9697 20.0303C15.829 19.8897 15.75 19.6989 15.75 19.5V6C15.75 5.80109 15.829 5.61032 15.9697 5.46967C16.1103 5.32902 16.3011 5.25 16.5 5.25Z" fill="#6E6F77"/>
<path fill-rule="evenodd" clip-rule="evenodd" d="M15.969 3.96901C16.0387 3.89917 16.1214 3.84375 16.2125 3.80594C16.3037 3.76813 16.4013 3.74867 16.5 3.74867C16.5986 3.74867 16.6963 3.76813 16.7874 3.80594C16.8786 3.84375 16.9613 3.89917 17.031 3.96901L21.531 8.46901C21.6007 8.53875 21.656 8.62153 21.6938 8.71264C21.7315 8.80375 21.7509 8.9014 21.7509 9.00001C21.7509 9.09863 21.7315 9.19628 21.6938 9.28739C21.656 9.3785 21.6007 9.46128 21.531 9.53101C21.4613 9.60075 21.3785 9.65606 21.2874 9.6938C21.1963 9.73154 21.0986 9.75096 21 9.75096C20.9014 9.75096 20.8037 9.73154 20.7126 9.6938C20.6215 9.65606 20.5387 9.60075 20.469 9.53101L16.5 5.56051L12.531 9.53101C12.4613 9.60075 12.3785 9.65606 12.2874 9.6938C12.1963 9.73154 12.0986 9.75096 12 9.75096C11.9014 9.75096 11.8037 9.73154 11.7126 9.6938C11.6215 9.65606 11.5387 9.60075 11.469 9.53101C11.3993 9.46128 11.344 9.3785 11.3062 9.28739C11.2685 9.19628 11.2491 9.09863 11.2491 9.00001C11.2491 8.9014 11.2685 8.80375 11.3062 8.71264C11.344 8.62153 11.3993 8.53875 11.469 8.46901L15.969 3.96901ZM2.469 14.469C2.53867 14.3992 2.62143 14.3438 2.71255 14.3059C2.80367 14.2681 2.90135 14.2487 3 14.2487C3.09865 14.2487 3.19633 14.2681 3.28745 14.3059C3.37857 14.3438 3.46133 14.3992 3.531 14.469L7.5 18.4395L11.469 14.469C11.5387 14.3993 11.6215 14.344 11.7126 14.3062C11.8037 14.2685 11.9014 14.2491 12 14.2491C12.0986 14.2491 12.1963 14.2685 12.2874 14.3062C12.3785 14.344 12.4613 14.3993 12.531 14.469C12.6007 14.5387 12.656 14.6215 12.6938 14.7126C12.7315 14.8037 12.7509 14.9014 12.7509 15C12.7509 15.0986 12.7315 15.1963 12.6938 15.2874C12.656 15.3785 12.6007 15.4613 12.531 15.531L8.031 20.031C7.96133 20.1009 7.87857 20.1563 7.78745 20.1941C7.69633 20.2319 7.59865 20.2514 7.5 20.2514C7.40135 20.2514 7.30367 20.2319 7.21255 20.1941C7.12143 20.1563 7.03867 20.1009 6.969 20.031L2.469 15.531C2.39915 15.4613 2.34374 15.3786 2.30593 15.2875C2.26812 15.1963 2.24866 15.0987 2.24866 15C2.24866 14.9014 2.26812 14.8037 2.30593 14.7126C2.34374 14.6214 2.39915 14.5387 2.469 14.469Z" fill="#6E6F77"/>
<path fill-rule="evenodd" clip-rule="evenodd" d="M7.5 3.75C7.69891 3.75 7.88968 3.82902 8.03033 3.96967C8.17098 4.11032 8.25 4.30109 8.25 4.5V18C8.25 18.1989 8.17098 18.3897 8.03033 18.5303C7.88968 18.671 7.69891 18.75 7.5 18.75C7.30109 18.75 7.11032 18.671 6.96967 18.5303C6.82902 18.3897 6.75 18.1989 6.75 18V4.5C6.75 4.30109 6.82902 4.11032 6.96967 3.96967C7.11032 3.82902 7.30109 3.75 7.5 3.75Z" fill="#6E6F77"/>
</svg>
