<svg width="24" height="24" viewBox="0 0 24 24" fill="none" xmlns="http://www.w3.org/2000/svg">
<path fill-rule="evenodd" clip-rule="evenodd" d="M5.58075 20.2201C5.48325 20.7528 6.03074 21.1692 6.51323 20.9316L12.0006 18.2246L17.4868 20.9316C17.9693 21.1692 18.5168 20.7528 18.4193 20.2213L17.3818 14.5457L21.7854 10.5188C22.1967 10.142 21.9829 9.45328 21.4317 9.37889L15.3093 8.54375L12.5794 3.35175C12.5274 3.2465 12.4453 3.15758 12.3428 3.09532C12.2402 3.03305 12.1213 3 12 3C11.8787 3 11.7598 3.03305 11.6572 3.09532C11.5547 3.15758 11.4726 3.2465 11.4206 3.35175L8.69069 8.54495L2.56831 9.38009C2.01707 9.45448 1.80332 10.1432 2.21456 10.52L6.61823 14.5469L5.58075 20.2225V20.2201ZM11.7119 16.8999L7.10447 19.1725L7.97195 14.4245C7.99227 14.3152 7.98432 14.2028 7.9488 14.0971C7.91327 13.9915 7.85126 13.8958 7.76821 13.8185L4.13578 10.4948L9.20068 9.80365C9.30556 9.78845 9.40503 9.74907 9.49059 9.68888C9.57614 9.6287 9.64523 9.5495 9.69192 9.45808L12.0006 5.06881L14.3081 9.45808C14.3548 9.5495 14.4239 9.6287 14.5094 9.68888C14.595 9.74907 14.6944 9.78845 14.7993 9.80365L19.8642 10.4936L16.2318 13.8173C16.1485 13.8947 16.0863 13.9905 16.0507 14.0964C16.0152 14.2023 16.0074 14.315 16.028 14.4245L16.8955 19.1725L12.2881 16.8999C12.199 16.8558 12.1002 16.8328 12 16.8328C11.8998 16.8328 11.801 16.8558 11.7119 16.8999Z" fill="#6E6F77"/>
</svg>
