<svg width="24" height="24" viewBox="0 0 24 24" fill="none" xmlns="http://www.w3.org/2000/svg">
<path d="M6 18V21.75C6 22.3467 6.23705 22.919 6.65901 23.341C7.08097 23.7629 7.65326 24 8.25 24H21.75C22.3467 24 22.919 23.7629 23.341 23.341C23.7629 22.919 24 22.3467 24 21.75V8.25C24 7.65326 23.7629 7.08097 23.341 6.65901C22.919 6.23705 22.3467 6 21.75 6H18V15.75C18 16.3467 17.7629 16.919 17.341 17.341C16.919 17.7629 16.3467 18 15.75 18H6Z" fill="#6E6F77"/>
<path fill-rule="evenodd" clip-rule="evenodd" d="M16.75 2.5H3.25C3.05109 2.5 2.86032 2.57902 2.71967 2.71967C2.57902 2.86032 2.5 3.05109 2.5 3.25V16.75C2.5 16.9489 2.57902 17.1397 2.71967 17.2803C2.86032 17.421 3.05109 17.5 3.25 17.5H16.75C16.9489 17.5 17.1397 17.421 17.2803 17.2803C17.421 17.1397 17.5 16.9489 17.5 16.75V3.25C17.5 3.05109 17.421 2.86032 17.2803 2.71967C17.1397 2.57902 16.9489 2.5 16.75 2.5ZM3.25 1C2.65326 1 2.08097 1.23705 1.65901 1.65901C1.23705 2.08097 1 2.65326 1 3.25L1 16.75C1 17.3467 1.23705 17.919 1.65901 18.341C2.08097 18.7629 2.65326 19 3.25 19H16.75C17.3467 19 17.919 18.7629 18.341 18.341C18.7629 17.919 19 17.3467 19 16.75V3.25C19 2.65326 18.7629 2.08097 18.341 1.65901C17.919 1.23705 17.3467 1 16.75 1L3.25 1Z" fill="#6E6F77"/>
</svg>
