<svg width="28" height="17" viewBox="0 0 28 17" fill="none" xmlns="http://www.w3.org/2000/svg">
<path d="M0 8.27539C0 3.85711 3.58172 0.275391 8 0.275391H20C24.4183 0.275391 28 3.85711 28 8.27539C28 12.6937 24.4183 16.2754 20 16.2754H8C3.58172 16.2754 0 12.6937 0 8.27539Z" fill="white"/>
<circle cx="8" cy="8.27539" r="6" fill="#ADB5BD"/>
<path d="M8 1.27539H20V-0.724609H8V1.27539ZM20 15.2754H8V17.2754H20V15.2754ZM8 15.2754C4.13401 15.2754 1 12.1414 1 8.27539H-1C-1 13.246 3.02944 17.2754 8 17.2754V15.2754ZM27 8.27539C27 12.1414 23.866 15.2754 20 15.2754V17.2754C24.9706 17.2754 29 13.246 29 8.27539H27ZM20 1.27539C23.866 1.27539 27 4.4094 27 8.27539H29C29 3.30483 24.9706 -0.724609 20 -0.724609V1.27539ZM8 -0.724609C3.02944 -0.724609 -1 3.30483 -1 8.27539H1C1 4.4094 4.13401 1.27539 8 1.27539V-0.724609Z" fill="#ADB5BD"/>
</svg>
